<?xml version="1.0" encoding="UTF-8"?>
<svg id="Layer_2" data-name="Layer 2" xmlns="http://www.w3.org/2000/svg" xmlns:xlink="http://www.w3.org/1999/xlink" viewBox="0 0 506.59 60.79">
  <defs>
    <style>
      .cls-1 {
        fill: url(#linear-gradient);
      }
    </style>
    <linearGradient id="linear-gradient" x1="253.3" y1="-18.15" x2="253.3" y2="272.29" gradientUnits="userSpaceOnUse">
      <stop offset="0" stop-color="#c4d4f5"/>
      <stop offset="1" stop-color="#3d69cc"/>
    </linearGradient>
  </defs>
  <g id="Layer_1-2" data-name="Layer 1">
    <path class="cls-1" d="M.02,40.64V3.36H16.02V38.88c0,4.16,2.27,6.24,6.8,6.24s6.8-2.08,6.8-6.24V3.36h16c-1.6,10.99,4.76,44.36-6.32,51.76C26.8,66.28-.88,60.26,.02,40.64Zm66.8,18.72h-14.8V.96h14.8V59.36ZM99.62,19.36v14.08h-8.4c.34,7.42-2.56,14.33,8.4,12.64v13.28c-21.99,3.53-24.16-7.7-23.2-25.92h-5.6v-14.08h5.6v-6.8l14.8-4.4v11.2h8.4Zm12.64-3.04c-10.67,.16-10.64-16.47,0-16.32,10.49-.02,10.57,16.38,0,16.32Zm7.36,43.04h-14.8V19.36h14.8V59.36Zm53.6-41.12c20.61-.91,13.64,28.5,14.8,41.12h-14.8v-22.32c0-3.04-1.36-4.56-4.08-4.56-3.15,0-4.72,1.97-4.72,5.92v20.96h-14.8v-22.32c0-3.04-1.36-4.56-4.08-4.56-3.15,0-4.72,1.97-4.72,5.92v20.96h-14.8V19.36h14.8v3.76c4.41-6.22,16.96-6.83,20.88,.08,2.88-3.31,6.72-4.96,11.52-4.96Zm47.92,4.72v-3.6h14.8V59.36h-14.8v-3.6c-11.33,12.27-30.65-.78-29.04-16.4-1.61-15.62,17.72-28.68,29.04-16.4Zm-12.32,21.76c6.93,7.06,16.78-4.01,10.32-10.72-6.8-7.07-16.66,3.97-10.32,10.72Zm59.92-25.36v14.08h-8.4c.34,7.42-2.56,14.33,8.4,12.64v13.28c-21.99,3.53-24.16-7.7-23.2-25.92h-5.6v-14.08h5.6v-6.8l14.8-4.4v11.2h8.4Zm44.56,25.04h-26.56c2.08,4.78,10.77,5.29,14.96,1.44l9.68,8.16c-20.72,19.2-53.8-6.05-33.6-29.68,14.68-14.84,41.3-.83,35.52,20.08Zm-26.8-9.52h13.44c-1.3-6.59-11.75-6.24-13.44,0Zm29.44-31.52h42.4v15.52h-13.2V59.36h-16V18.88h-13.2V3.36Zm79.76,41.04h-26.56c2.08,4.78,10.77,5.29,14.96,1.44l9.68,8.16c-20.72,19.2-53.8-6.05-33.6-29.68,14.68-14.84,41.3-.83,35.52,20.08Zm-26.8-9.52h13.44c-1.3-6.59-11.75-6.24-13.44,0Zm51.6,25.6c-18.8,1.14-28.49-23.71-15.28-36.16,8.98-9.59,27.53-7.52,33.68,4.4l-12.48,7.12c-3.18-5.98-12.91-3.35-12.48,3.52-.52,6.9,9.63,9.54,12.48,3.44l12.48,7.2c-3.53,6.64-10.84,10.54-18.4,10.48Zm47.52-42.24c19.91-.38,13.44,28.49,14.48,41.12h-14.8v-21.52c0-3.57-1.65-5.36-4.96-5.36-3.75-.01-5.45,2.66-5.44,6.32,0,0,0,20.56,0,20.56h-14.8V3.36h14.8V23.28c2.51-3.36,6.08-5.04,10.72-5.04Zm35.76,39.68c-8.32,8.53-21.57-4.73-13.04-13.04,8.3-8.68,21.72,4.74,13.04,13.04Z"/>
  </g>
</svg>