<?xml version="1.0" encoding="UTF-8"?>
<svg id="Layer_2" data-name="Layer 2" xmlns="http://www.w3.org/2000/svg" viewBox="0 0 375.62 187.44">
  <defs>
    <style>
      .cls-1 {
        fill: #fff;
      }
    </style>
  </defs>
  <g id="Layer_1-2" data-name="Layer 1">
    <g>
      <path class="cls-1" d="M36.94,62.64c-6.53,0-11.52-2.02-14.98-6.06-3.51-4.04-4.72-9.28-3.64-15.73L24.87,0h7.53l-6.56,40.5c-.7,4.33-.07,7.77,1.9,10.32,1.97,2.55,5.11,3.82,9.43,3.82s8.06-1.27,10.89-3.82c2.83-2.55,4.6-5.99,5.3-10.32L59.93,0h7.45l-6.56,40.85c-1.13,6.85-3.86,12.21-8.18,16.08-4.32,3.81-9.55,5.71-15.71,5.71Z"/>
      <path class="cls-1" d="M86.24,0l-8.74,53.77h24.53l-1.3,7.73h-31.98L78.71,0h7.53Z"/>
      <path class="cls-1" d="M107.86,0h40.89l-1.21,7.73h-16.76l-8.74,53.77h-7.45L123.32,7.73h-16.68l1.21-7.73Z"/>
      <path class="cls-1" d="M146.24,61.5L156.2,0h7.53l-9.96,61.5h-7.53Z"/>
      <path class="cls-1" d="M220.08,0h8.83l-9.96,61.5h-7.45l7.77-47.79-23.88,33.21h-.97l-13.12-34-7.85,48.58h-7.53L175.87,0h8.26l12.47,32.86L220.08,0Z"/>
      <path class="cls-1" d="M276.43,61.5h-7.93l-2.27-13.79h-25.5l-6.96,13.79h-8.18L256.75,0h8.5l11.17,61.5Zm-16.6-51.92l-15.3,30.49h20.4l-5.1-30.49Z"/>
      <path class="cls-1" d="M284.36,0h40.89l-1.21,7.73h-16.76l-8.74,53.77h-7.45l8.74-53.77h-16.68l1.21-7.73Z"/>
      <path class="cls-1" d="M366.14,0l-1.21,7.73h-25.91l-3.08,18.89h23.88l-1.29,7.64h-23.88l-3.16,19.5h26.31l-1.21,7.73h-33.84L332.7,0h33.44Z"/>
      <path class="cls-1" d="M4.84,76.93H80.22l-4.84,29.94h-23.47l-12.66,78.1H10.81l12.66-78.1H0l4.84-29.94Z"/>
      <path class="cls-1" d="M153.47,76.93l-4.55,28.09h-36.27l-1.85,11.73h32.71l-4.55,27.78h-32.71l-1.99,12.04h36.98l-4.55,28.4H71.26l17.5-108.04h64.72Z"/>
      <path class="cls-1" d="M197.71,187.44c-15.46,0-27.45-5.5-35.99-16.51-8.44-11.01-11.43-24.85-8.96-41.52,2.37-15.95,9.05-29.12,20.06-39.51,11-10.29,23.85-15.43,38.55-15.43,19.63,0,33.61,8.85,41.96,26.55l-26.03,14.97c-3.79-7.51-9.96-11.27-18.49-11.27-6.83,0-12.85,2.47-18.06,7.41-5.12,4.84-8.35,11.11-9.67,18.83-1.14,7.31,0,13.53,3.41,18.67,3.41,5.04,8.53,7.56,15.36,7.56,7.87,0,14.65-4.01,20.34-12.04l23.61,16.21c-5.12,8.33-11.69,14.77-19.7,19.29-8.01,4.53-16.81,6.79-26.38,6.79Z"/>
      <path class="cls-1" d="M310.93,115.21l6.26-38.28h28.45l-17.5,108.04h-28.45l6.4-39.82h-24.18l-6.4,39.82h-28.45l17.5-108.04h28.45l-6.26,38.28h24.18Z"/>
      <path class="cls-1" d="M356.3,187.28c-4.55,0-8.13-1.78-10.74-5.33-2.61-3.55-3.53-7.79-2.77-12.73,.76-4.94,2.99-9.05,6.68-12.35,3.7-3.4,7.87-5.09,12.52-5.09s8.11,1.77,10.67,5.32c2.56,3.55,3.46,7.79,2.7,12.73-.76,5.04-2.92,9.21-6.47,12.5-3.56,3.29-7.75,4.94-12.59,4.94Z"/>
    </g>
  </g>
</svg>