<?xml version="1.0" standalone="no"?>
<!DOCTYPE svg PUBLIC "-//W3C//DTD SVG 20010904//EN"
 "http://www.w3.org/TR/2001/REC-SVG-20010904/DTD/svg10.dtd">
<svg version="1.0" xmlns="http://www.w3.org/2000/svg"
 width="700.000000pt" height="700.000000pt" viewBox="0 0 700.000000 700.000000"
 preserveAspectRatio="xMidYMid meet">
<metadata>
Created by potrace 1.14, written by Peter Selinger 2001-2017
</metadata>
<g transform="translate(0.000000,700.000000) scale(0.100000,-0.100000)"
fill="#000000" stroke="none">
<path d="M3278 6995 c-1 -1 -42 -5 -89 -9 -47 -4 -95 -8 -106 -10 -11 -3 -44
-7 -74 -11 -390 -47 -863 -208 -1239 -423 -86 -49 -301 -187 -339 -218 -9 -7
-52 -41 -96 -75 -432 -336 -819 -832 -1029 -1319 -16 -36 -35 -78 -42 -95 -54
-120 -153 -432 -180 -570 -2 -11 -10 -54 -19 -95 -29 -147 -36 -200 -52 -370
-15 -165 -8 -592 12 -711 2 -13 6 -46 9 -74 9 -78 22 -152 51 -285 21 -96 91
-339 114 -395 5 -11 26 -65 46 -120 53 -138 160 -358 239 -489 36 -60 66 -111
66 -113 0 -2 5 -9 10 -16 6 -7 40 -55 76 -107 194 -277 402 -497 707 -746 194
-158 551 -368 797 -469 157 -64 341 -128 409 -141 14 -3 28 -7 33 -10 4 -3 16
-7 25 -9 10 -2 50 -11 88 -20 39 -9 79 -19 90 -21 61 -12 185 -34 220 -39 22
-2 56 -7 75 -10 195 -27 632 -27 848 1 278 35 683 140 887 230 22 10 42 18 45
19 56 16 306 144 441 226 133 80 169 104 307 207 227 168 492 431 668 662 27
36 51 67 54 70 18 16 168 253 222 350 243 435 396 931 436 1415 13 163 4 688
-13 715 -2 3 -6 30 -9 60 -3 30 -8 64 -10 75 -2 11 -11 61 -21 110 -141 765
-580 1513 -1180 2010 -33 28 -62 53 -65 56 -4 5 -138 102 -270 196 -110 79
-423 244 -600 316 -215 88 -570 187 -760 212 -19 3 -46 7 -60 10 -13 2 -52 7
-86 11 -33 3 -74 8 -90 10 -33 5 -540 14 -546 9z"/>
</g>
</svg>
